<svg width="52" height="53" viewBox="0 0 52 53" fill="none" xmlns="http://www.w3.org/2000/svg">
<mask id="path-1-inside-1" fill="white">
<path d="M49.3477 29.4864C49.3477 35.1913 47.249 40.6969 43.4513 44.9542C39.6537 49.2115 34.4226 51.9229 28.7547 52.5719C23.0868 53.2209 17.3782 51.7621 12.7165 48.4734C8.05484 45.1848 4.76592 40.2961 3.47636 34.7388L5.73985 34.2135C6.90046 39.2151 9.86048 43.6149 14.056 46.5747C18.2515 49.5345 23.3892 50.8475 28.4903 50.2634C33.5915 49.6793 38.2995 47.239 41.7173 43.4074C45.1352 39.5759 47.0241 34.6208 47.0241 29.4864H49.3477Z"/>
</mask>
<path d="M49.3477 29.4864C49.3477 35.1913 47.249 40.6969 43.4513 44.9542C39.6537 49.2115 34.4226 51.9229 28.7547 52.5719C23.0868 53.2209 17.3782 51.7621 12.7165 48.4734C8.05484 45.1848 4.76592 40.2961 3.47636 34.7388L5.73985 34.2135C6.90046 39.2151 9.86048 43.6149 14.056 46.5747C18.2515 49.5345 23.3892 50.8475 28.4903 50.2634C33.5915 49.6793 38.2995 47.239 41.7173 43.4074C45.1352 39.5759 47.0241 34.6208 47.0241 29.4864H49.3477Z" stroke="white" stroke-width="4" mask="url(#path-1-inside-1)"/>
<path d="M4.05188 29.7217H49.3394" stroke="white" stroke-width="2"/>
<path d="M26.2959 29.0601C19.761 17.5731 20.0427 11.4984 26.2959 1" stroke="white" stroke-width="2"/>
<path d="M26.296 29.0601C32.3051 17.5731 32.0461 11.4984 26.296 1" stroke="white" stroke-width="2"/>
<path d="M24.5781 29.4163C11.578 27.0387 7.10563 22.9181 3.08289 11.3797" stroke="white" stroke-width="2"/>
<path d="M24.5781 29.4163C19.6412 17.4294 14.8212 13.7231 3.08289 11.3797" stroke="white" stroke-width="2"/>
<path d="M27.6699 29.6568C32.2689 17.267 37.1035 13.5781 49.1652 11.6201" stroke="white" stroke-width="2"/>
<path d="M27.6698 29.6568C40.332 26.8763 44.8189 22.7731 49.1651 11.6201" stroke="white" stroke-width="2"/>
</svg>
