<svg width="30" height="29" viewBox="0 0 30 29" fill="none" xmlns="http://www.w3.org/2000/svg">
<path d="M15 14.5C19.7344 14.5 23.5714 11.2545 23.5714 7.25C23.5714 3.24551 19.7344 0 15 0C10.2656 0 6.42857 3.24551 6.42857 7.25C6.42857 11.2545 10.2656 14.5 15 14.5ZM21 16.3125H19.8817C18.3951 16.8902 16.7411 17.2187 15 17.2187C13.2589 17.2187 11.6116 16.8902 10.1183 16.3125H9C4.03125 16.3125 0 19.7223 0 23.925V26.2812C0 27.7822 1.43973 29 3.21429 29H26.7857C28.5603 29 30 27.7822 30 26.2812V23.925C30 19.7223 25.9688 16.3125 21 16.3125Z" fill="#7D4F38"/>
</svg>
