<svg width="49" height="51" viewBox="0 0 49 51" fill="none" xmlns="http://www.w3.org/2000/svg">
<path d="M18.375 20.7188C18.375 18.9587 17.0036 17.5312 15.3125 17.5312H13.7812C10.3981 17.5312 7.65625 20.3851 7.65625 23.9062V28.6875C7.65625 32.2087 10.3981 35.0625 13.7812 35.0625H15.3125C17.0036 35.0625 18.375 33.6351 18.375 31.875V20.7188ZM35.2188 35.0625C38.6019 35.0625 41.3438 32.2087 41.3438 28.6875V23.9062C41.3438 20.3851 38.6019 17.5312 35.2188 17.5312H33.6875C31.9964 17.5312 30.625 18.9587 30.625 20.7188V31.875C30.625 33.6351 31.9964 35.0625 33.6875 35.0625H35.2188ZM24.5 0C10.8317 0 0.43832 11.8366 0 25.5V27.0938C0 27.9743 0.685234 28.6875 1.53125 28.6875H3.0625C3.90852 28.6875 4.59375 27.9743 4.59375 27.0938V25.5C4.59375 14.0758 13.5238 4.78125 24.5 4.78125C35.4762 4.78125 44.4062 14.0758 44.4062 25.5H44.3948C44.4024 25.7421 44.4062 42.0073 44.4062 42.0073C44.4062 44.3331 42.5946 46.2188 40.3599 46.2188H30.625C30.625 43.5781 28.5683 41.4375 26.0312 41.4375H22.9688C20.4317 41.4375 18.375 43.5781 18.375 46.2188C18.375 48.8594 20.4317 51 22.9688 51H40.3599C45.1317 51 49 46.9738 49 42.0073V25.5C48.5617 11.8366 38.1683 0 24.5 0Z" fill="white"/>
</svg>
