<svg width="60" height="50" viewBox="0 0 60 50" fill="none" xmlns="http://www.w3.org/2000/svg">
<g clip-path="url(#clip0)">
<path d="M57.0375 28.3691H55.575V17.9774C55.575 16.7566 55.1088 15.5838 54.2862 14.7186L45.1547 5.1152C44.332 4.25003 43.2169 3.75977 42.056 3.75977H38.025V-0.854492C38.025 -3.40195 36.0598 -5.46875 33.6375 -5.46875H4.3875C1.96523 -5.46875 0 -3.40195 0 -0.854492V29.9072C0 32.4547 1.96523 34.5215 4.3875 34.5215H5.85C5.85 39.6164 9.78047 43.75 14.625 43.75C19.4695 43.75 23.4 39.6164 23.4 34.5215H35.1C35.1 39.6164 39.0305 43.75 43.875 43.75C48.7195 43.75 52.65 39.6164 52.65 34.5215H57.0375C57.8419 34.5215 58.5 33.8293 58.5 32.9834V29.9072C58.5 29.0613 57.8419 28.3691 57.0375 28.3691ZM14.625 39.1357C12.2027 39.1357 10.2375 37.0689 10.2375 34.5215C10.2375 31.974 12.2027 29.9072 14.625 29.9072C17.0473 29.9072 19.0125 31.974 19.0125 34.5215C19.0125 37.0689 17.0473 39.1357 14.625 39.1357ZM43.875 39.1357C41.4527 39.1357 39.4875 37.0689 39.4875 34.5215C39.4875 31.974 41.4527 29.9072 43.875 29.9072C46.2973 29.9072 48.2625 31.974 48.2625 34.5215C48.2625 37.0689 46.2973 39.1357 43.875 39.1357ZM51.1875 19.1406H38.025V8.37402H42.056L51.1875 17.9774V19.1406Z" fill="white"/>
</g>
<defs>
<clipPath id="clip0">
<rect width="60" height="50" fill="white"/>
</clipPath>
</defs>
</svg>
