<svg width="23" height="21" viewBox="0 0 23 21" fill="none" xmlns="http://www.w3.org/2000/svg">
<path d="M21.0881 12.3588L22.9758 3.82754C23.112 3.21156 22.6562 2.625 22.0413 2.625H6.35726L5.99126 0.78709C5.90006 0.328986 5.50762 0 5.05237 0H0.958333C0.429054 0 0 0.440713 0 0.984375V1.64062C0 2.18429 0.429054 2.625 0.958333 2.625H3.7488L6.55384 16.7112C5.88277 17.1076 5.43056 17.8509 5.43056 18.7031C5.43056 19.9717 6.4317 21 7.66667 21C8.90164 21 9.90278 19.9717 9.90278 18.7031C9.90278 18.0602 9.64535 17.4794 9.23099 17.0625H17.6023C17.188 17.4794 16.9306 18.0602 16.9306 18.7031C16.9306 19.9717 17.9317 21 19.1667 21C20.4016 21 21.4028 19.9717 21.4028 18.7031C21.4028 17.7937 20.8882 17.0079 20.1418 16.6357L20.3621 15.64C20.4984 15.0241 20.0426 14.4375 19.4276 14.4375H8.70953L8.44819 13.125H20.1536C20.6011 13.125 20.989 12.807 21.0881 12.3588Z" fill="#7D4F38"/>
</svg>
