<svg width="56" height="53" viewBox="0 0 56 53" fill="none" xmlns="http://www.w3.org/2000/svg">
<mask id="path-1-inside-1" fill="white">
<path d="M51.3477 29.4864C51.3477 35.1913 49.249 40.6969 45.4513 44.9542C41.6537 49.2115 36.4226 51.9229 30.7547 52.5719C25.0868 53.2209 19.3782 51.7621 14.7165 48.4734C10.0548 45.1848 6.76592 40.2961 5.47636 34.7388L7.73985 34.2135C8.90046 39.2151 11.8605 43.6149 16.056 46.5747C20.2515 49.5345 25.3892 50.8475 30.4903 50.2634C35.5915 49.6793 40.2995 47.239 43.7173 43.4074C47.1352 39.5759 49.0241 34.6208 49.0241 29.4864H51.3477Z"/>
</mask>
<path d="M51.3477 29.4864C51.3477 35.1913 49.249 40.6969 45.4513 44.9542C41.6537 49.2115 36.4226 51.9229 30.7547 52.5719C25.0868 53.2209 19.3782 51.7621 14.7165 48.4734C10.0548 45.1848 6.76592 40.2961 5.47636 34.7388L7.73985 34.2135C8.90046 39.2151 11.8605 43.6149 16.056 46.5747C20.2515 49.5345 25.3892 50.8475 30.4903 50.2634C35.5915 49.6793 40.2995 47.239 43.7173 43.4074C47.1352 39.5759 49.0241 34.6208 49.0241 29.4864H51.3477Z" stroke="#7D4F38" stroke-width="4" mask="url(#path-1-inside-1)"/>
<path d="M6.05188 29.7216H51.3394" stroke="#7D4F38" stroke-width="2"/>
<path d="M28.2959 29.0601C21.761 17.5731 22.0427 11.4984 28.2959 1" stroke="#7D4F38" stroke-width="2"/>
<path d="M28.296 29.0601C34.3051 17.5731 34.0461 11.4984 28.296 1" stroke="#7D4F38" stroke-width="2"/>
<path d="M26.5781 29.4163C13.578 27.0387 9.10563 22.9181 5.08289 11.3797" stroke="#7D4F38" stroke-width="2"/>
<path d="M26.5781 29.4163C21.6412 17.4294 16.8212 13.7231 5.08289 11.3797" stroke="#7D4F38" stroke-width="2"/>
<path d="M29.6699 29.6568C34.2689 17.267 39.1035 13.5781 51.1652 11.6201" stroke="#7D4F38" stroke-width="2"/>
<path d="M29.6698 29.6568C42.332 26.8763 46.8189 22.7732 51.1651 11.6201" stroke="#7D4F38" stroke-width="2"/>
</svg>
