<svg width="36" height="29" viewBox="0 0 36 29" fill="none" xmlns="http://www.w3.org/2000/svg">
<path d="M35.662 26.1667L2.02549 0.195C1.93323 0.122044 1.82732 0.0677494 1.71382 0.0352175C1.60032 0.00268554 1.48144 -0.00744697 1.36397 0.00539847C1.2465 0.0182439 1.13274 0.0538158 1.02919 0.110083C0.925645 0.16635 0.83433 0.242211 0.760464 0.333334L0.197981 1.02722C0.123941 1.11838 0.068827 1.22306 0.0357913 1.33527C0.00275568 1.44749 -0.00755266 1.56503 0.00545617 1.68119C0.018465 1.79734 0.0545356 1.90982 0.111604 2.01219C0.168673 2.11456 0.245619 2.20481 0.338039 2.27778L33.9745 28.2495C34.0668 28.3224 34.1727 28.3767 34.2862 28.4092C34.3997 28.4418 34.5186 28.4519 34.636 28.4391C34.7535 28.4262 34.8673 28.3906 34.9708 28.3344C35.0744 28.2781 35.1657 28.2022 35.2395 28.1111L35.802 27.4172C35.8761 27.3261 35.9312 27.2214 35.9642 27.1092C35.9972 26.997 36.0076 26.8794 35.9945 26.7633C35.9815 26.6471 35.9455 26.5346 35.8884 26.4323C35.8313 26.3299 35.7544 26.2396 35.662 26.1667ZM16.6945 8.13723L24.2762 13.9917C24.1513 10.6617 21.4019 8 18 8C17.5612 8.00082 17.1236 8.04681 16.6945 8.13723ZM19.3055 20.3078L11.7238 14.4533C11.8493 17.7828 14.5987 20.4445 18 20.4445C18.4388 20.4435 18.8763 20.3977 19.3055 20.3078ZM18 6.22223C23.5489 6.22223 28.636 9.27778 31.3832 14.2222C30.7097 15.4391 29.8777 16.5635 28.9082 17.5667L31.031 19.2056C32.2129 17.9568 33.2143 16.5526 34.0066 15.0328C34.1353 14.7814 34.2023 14.5036 34.2023 14.222C34.2023 13.9403 34.1353 13.6625 34.0066 13.4111C30.9534 7.53278 24.9146 3.55556 18 3.55556C15.9357 3.55556 13.9664 3.94445 12.1147 4.60056L14.7252 6.61667C15.7906 6.37778 16.8818 6.22223 18 6.22223ZM18 22.2222C12.4511 22.2222 7.36458 19.1667 4.61685 14.2222C5.29114 13.0054 6.12416 11.8811 7.09458 10.8783L4.97177 9.23945C3.79008 10.488 2.78893 11.8921 1.9968 13.4117C1.86813 13.6631 1.80109 13.9408 1.80109 14.2225C1.80109 14.5042 1.86813 14.7819 1.9968 15.0333C5.04715 20.9117 11.086 24.8889 18 24.8889C20.0643 24.8889 22.0336 24.4972 23.8853 23.8439L21.2748 21.8283C20.2094 22.0667 19.1188 22.2222 18 22.2222Z" fill="black" fill-opacity="0.75"/>
</svg>
