<svg width="30" height="30" viewBox="0 0 30 30" fill="none" xmlns="http://www.w3.org/2000/svg">
<g clip-path="url(#clip0)">
<path d="M15.0001 30C23.2844 30 30.0002 23.2843 30.0002 15C30.0002 6.71576 23.2844 3.05176e-05 15.0001 3.05176e-05C6.71581 3.05176e-05 6.10352e-05 6.71576 6.10352e-05 15C6.10352e-05 23.2843 6.71581 30 15.0001 30Z" fill="#3C5A9A"/>
<path d="M19.8772 4.60431H16.5544C14.5826 4.60431 12.3893 5.43366 12.3893 8.29201C12.3989 9.28797 12.3893 10.2418 12.3893 11.3153H10.1082V14.9454H12.4599V25.3958H16.7814V14.8764H19.6337L19.8917 11.3051H16.7069C16.7069 11.3051 16.714 9.71642 16.7069 9.25506C16.7069 8.12551 17.8822 8.19019 17.9529 8.19019C18.5122 8.19019 19.5997 8.19182 19.8788 8.19019V4.60431H19.8772Z" fill="white"/>
</g>
<defs>
<clipPath id="clip0">
<rect width="30" height="30" fill="white"/>
</clipPath>
</defs>
</svg>
