<svg width="33" height="33" viewBox="0 0 33 33" fill="none" xmlns="http://www.w3.org/2000/svg">
<g clip-path="url(#clip0)">
<path d="M16.5251 33C25.6517 33 33.0502 25.6127 33.0502 16.5C33.0502 7.3873 25.6517 0 16.5251 0C7.39854 0 -1.52588e-05 7.3873 -1.52588e-05 16.5C-1.52588e-05 25.6127 7.39854 33 16.5251 33Z" fill="#E0E0E0"/>
<path d="M16.5251 32.4985C25.513 32.4985 32.7991 25.2234 32.7991 16.2492C32.7991 7.27503 25.513 0 16.5251 0C7.53725 0 0.251129 7.27503 0.251129 16.2492C0.251129 25.2234 7.53725 32.4985 16.5251 32.4985Z" fill="white"/>
</g>
<path d="M27.9884 17.2058C27.9884 16.3045 27.9135 15.6467 27.7515 14.9647H17.2191V19.0328H23.4014C23.2768 20.0438 22.6037 21.5663 21.108 22.5894L21.087 22.7256L24.4172 25.2466L24.6479 25.2691C26.7668 23.3568 27.9884 20.5432 27.9884 17.2058Z" fill="#4285F4"/>
<path d="M17.2191 27.9244C20.2479 27.9244 22.7906 26.95 24.6479 25.2692L21.108 22.5894C20.1607 23.235 18.8893 23.6857 17.2191 23.6857C14.2526 23.6857 11.7348 21.7734 10.8373 19.1303L10.7057 19.1412L7.24296 21.76L7.19768 21.883C9.04239 25.464 12.8316 27.9244 17.2191 27.9244Z" fill="#34A853"/>
<path d="M10.8374 19.1303C10.6006 18.4482 10.4635 17.7174 10.4635 16.9622C10.4635 16.207 10.6006 15.4762 10.8249 14.7941L10.8187 14.6489L7.31252 11.988L7.19781 12.0414C6.43751 13.5274 6.00125 15.1961 6.00125 16.9622C6.00125 18.7284 6.43751 20.397 7.19781 21.883L10.8374 19.1303Z" fill="#FBBC05"/>
<path d="M17.2191 10.2387C19.3256 10.2387 20.7465 11.1278 21.5567 11.8709L24.7227 8.85018C22.7783 7.08405 20.2479 6 17.2191 6C12.8316 6 9.04239 8.46039 7.19768 12.0414L10.8248 14.7941C11.7348 12.151 14.2526 10.2387 17.2191 10.2387Z" fill="#EB4335"/>
<defs>
<clipPath id="clip0">
<rect width="33" height="33" fill="white"/>
</clipPath>
</defs>
</svg>
