<svg width="30" height="30" viewBox="0 0 30 30" fill="none" xmlns="http://www.w3.org/2000/svg">
<path d="M7.212 10.089C7.227 9.67801 7.236 9.27901 7.26 8.88301C7.305 8.18701 7.287 7.47601 7.422 6.79501C8.037 3.645 9.825 1.506 12.954 0.594003C14.13 0.249003 15.333 0.231003 16.539 0.432003C17.85 0.651003 19.038 1.161 20.079 1.989C20.952 2.682 21.63 3.537 22.125 4.53601C22.497 5.28601 22.752 6.07801 22.872 6.90301C22.944 7.40701 22.968 7.92301 22.983 8.43301C22.998 8.93101 22.98 9.42901 22.974 9.92401C22.974 9.97201 22.974 10.02 22.974 10.092C23.19 10.092 23.394 10.089 23.598 10.092C24.021 10.095 24.444 10.128 24.852 10.254C26.082 10.632 26.94 11.421 27.435 12.603C27.639 13.095 27.717 13.614 27.717 14.145C27.717 17.976 27.72 21.81 27.717 25.641C27.717 27.03 27.156 28.146 26.031 28.965C25.341 29.466 24.552 29.694 23.703 29.694C17.901 29.697 12.099 29.706 6.297 29.688C4.587 29.682 3.351 28.851 2.616 27.303C2.373 26.79 2.286 26.235 2.286 25.668C2.289 21.816 2.274 17.964 2.292 14.112C2.301 12.399 3.123 11.166 4.668 10.428C5.199 10.173 5.775 10.092 6.363 10.089C6.639 10.089 6.921 10.089 7.212 10.089ZM15.003 27.591C15.063 27.591 15.12 27.591 15.18 27.591C18.003 27.591 20.826 27.582 23.649 27.597C24.84 27.6 25.626 26.67 25.62 25.623C25.602 21.804 25.614 17.988 25.611 14.169C25.611 14.052 25.614 13.932 25.593 13.815C25.428 12.822 24.693 12.195 23.685 12.195C17.892 12.195 12.099 12.195 6.306 12.195C6.144 12.195 5.979 12.207 5.823 12.243C4.95 12.45 4.383 13.191 4.383 14.112C4.383 17.601 4.383 21.087 4.383 24.576C4.383 24.975 4.377 25.374 4.386 25.773C4.395 26.229 4.557 26.628 4.863 26.967C5.268 27.417 5.784 27.591 6.384 27.591C9.258 27.588 12.132 27.591 15.003 27.591ZM20.862 10.08C20.865 10.038 20.874 10.005 20.874 9.97201C20.88 9.41101 20.889 8.85001 20.886 8.28901C20.877 7.16101 20.616 6.09601 20.037 5.12101C19.434 4.10701 18.591 3.363 17.511 2.895C16.449 2.436 15.339 2.322 14.199 2.481C13.134 2.631 12.18 3.039 11.37 3.74401C10.164 4.79101 9.555 6.14701 9.42 7.71901C9.357 8.44801 9.357 9.18301 9.327 9.91801C9.324 9.96901 9.327 10.023 9.327 10.077H20.862V10.08Z" fill="black" fill-opacity="0.75"/>
<path d="M13.947 21.279C13.947 20.79 13.944 20.304 13.95 19.815C13.95 19.719 13.926 19.656 13.842 19.596C13.143 19.077 12.855 18.372 13.032 17.526C13.206 16.695 13.746 16.167 14.574 15.972C15.876 15.663 17.115 16.743 17.016 18.084C16.968 18.723 16.68 19.227 16.161 19.596C16.083 19.65 16.056 19.707 16.056 19.803C16.059 20.772 16.059 21.744 16.059 22.713C16.059 23.088 15.945 23.412 15.633 23.64C15.309 23.88 14.952 23.922 14.586 23.763C14.226 23.607 13.989 23.325 13.971 22.929C13.947 22.38 13.965 21.828 13.965 21.276C13.959 21.279 13.953 21.279 13.947 21.279Z" fill="black" fill-opacity="0.75"/>
</svg>
