<svg width="27" height="19" viewBox="0 0 27 19" fill="none" xmlns="http://www.w3.org/2000/svg">
<path d="M24.4688 0H2.53125C1.13326 0 0 1.06123 0 2.37037V16.5926C0 17.9017 1.13326 18.963 2.53125 18.963H24.4688C25.8667 18.963 27 17.9017 27 16.5926V2.37037C27 1.06123 25.8667 0 24.4688 0ZM24.4688 2.37037V4.38543C23.2863 5.28711 21.4013 6.68918 17.3714 9.64419C16.4833 10.2984 14.7241 11.87 13.5 11.8516C12.2761 11.8702 10.5163 10.2981 9.62861 9.64419C5.59934 6.68963 3.71382 5.28726 2.53125 4.38543V2.37037H24.4688ZM2.53125 16.5926V7.42706C3.73961 8.32834 5.45321 9.59308 8.06509 11.5083C9.21771 12.358 11.2362 14.2336 13.5 14.2222C15.7527 14.2336 17.7456 12.3852 18.9344 11.5087C21.5463 9.59352 23.2603 8.32844 24.4688 7.42711V16.5926H2.53125Z" fill="black" fill-opacity="0.75"/>
</svg>
