<svg width="22" height="25" viewBox="0 0 22 25" fill="none" xmlns="http://www.w3.org/2000/svg">
<path d="M15.4 14.8438C13.9906 14.8438 13.3129 15.625 11 15.625C8.68705 15.625 8.01429 14.8438 6.6 14.8438C2.95625 14.8438 0 17.7832 0 21.4062V22.6562C0 23.9502 1.0558 25 2.35714 25H19.6429C20.9442 25 22 23.9502 22 22.6562V21.4062C22 17.7832 19.0437 14.8438 15.4 14.8438ZM19.6429 22.6562H2.35714V21.4062C2.35714 19.082 4.2625 17.1875 6.6 17.1875C7.31696 17.1875 8.4808 17.9688 11 17.9688C13.5388 17.9688 14.6781 17.1875 15.4 17.1875C17.7375 17.1875 19.6429 19.082 19.6429 21.4062V22.6562ZM11 14.0625C14.904 14.0625 18.0714 10.9131 18.0714 7.03125C18.0714 3.14941 14.904 0 11 0C7.09598 0 3.92857 3.14941 3.92857 7.03125C3.92857 10.9131 7.09598 14.0625 11 14.0625ZM11 2.34375C13.5978 2.34375 15.7143 4.44824 15.7143 7.03125C15.7143 9.61426 13.5978 11.7188 11 11.7188C8.40223 11.7188 6.28571 9.61426 6.28571 7.03125C6.28571 4.44824 8.40223 2.34375 11 2.34375Z" fill="black" fill-opacity="0.75"/>
</svg>
